<svg width="48" height="48" viewBox="0 0 48 48" fill="none" xmlns="http://www.w3.org/2000/svg">
    <path d="M44.3125 26.3438H6.8125V8.76565C6.81069 8.10367 6.9402 7.4479 7.19353 6.83631C7.44687 6.22472 7.819 5.66946 8.28838 5.20266L8.32744 5.16359C9.06305 4.42907 10.0075 3.93956 11.0317 3.76194C12.056 3.58432 13.1101 3.72725 14.0501 4.17121C13.1624 5.64718 12.7934 7.3775 13.0018 9.0872C13.2102 10.7969 13.984 12.3879 15.2003 13.6074L16.2697 14.6769L14.3013 16.6454L16.5108 18.855L18.4793 16.8865L29.3864 5.97961L31.3549 4.01115L29.1452 1.80148L27.1767 3.76994L26.1072 2.70051C24.8268 1.42368 23.139 0.6366 21.3379 0.476419C19.5367 0.316238 17.7365 0.793113 16.2509 1.82395C14.6843 0.834603 12.8278 0.407497 10.9864 0.61279C9.14495 0.818083 7.4281 1.64357 6.11787 2.95363L6.07881 2.9927C5.3183 3.74904 4.71537 4.64871 4.3049 5.63964C3.89443 6.63057 3.68458 7.69307 3.6875 8.76565V26.3438H0.5625V29.4688H3.6875V32.4668C3.68743 32.7187 3.72806 32.969 3.80781 33.2079L6.71484 41.9286C6.86998 42.3955 7.16828 42.8017 7.56739 43.0894C7.96649 43.377 8.4461 43.5317 8.93809 43.5313H10.1979L9.05859 47.4375H12.3138L13.4531 43.5313H33.7754L34.9473 47.4375H38.209L37.0371 43.5313H39.0615C39.5536 43.5318 40.0333 43.3772 40.4325 43.0895C40.8316 42.8018 41.13 42.3956 41.2852 41.9286L44.192 33.2079C44.2718 32.969 44.3125 32.7187 44.3125 32.4668V29.4688H47.4375V26.3438H44.3125ZM17.4102 4.91018C18.2711 4.05112 19.4376 3.56866 20.6539 3.56866C21.8701 3.56866 23.0366 4.05112 23.8976 4.91018L24.9668 5.97961L18.4796 12.4668L17.4102 11.3976C16.5511 10.5366 16.0687 9.37008 16.0687 8.15388C16.0687 6.93767 16.5511 5.77113 17.4102 4.91018ZM41.1875 32.3399L38.4988 40.4063H9.50117L6.8125 32.3399V29.4688H41.1875V32.3399Z" fill="black"/>
</svg>
