<svg width="100" height="100" viewBox="0 0 100 100" fill="none" xmlns="http://www.w3.org/2000/svg">
    <path d="M28.5039 97.1935C27.3941 97.2266 26.0813 97.1667 24.7815 97.3596C22.8369 97.6481 22.6887 98.4345 21.4239 99.3664C19.0337 101.127 17.7496 98.7605 16.3884 97.7902C16.2311 97.6781 16.0779 97.5281 15.9969 97.3647C15.6475 96.6594 15.1235 96.0676 14.6062 95.4676C13.7509 94.4756 15.02 93.2337 15.6927 92.8686C16.5411 92.408 14.9438 92.2083 14.9519 91.2554C14.9537 91.0484 14.6512 90.9182 14.4279 91.281C13.773 92.3449 12.176 95.4792 9.12756 97.0429C6.56345 98.3582 5.13764 97.309 4.54021 97.1014C3.34882 96.6871 2.28745 96.0625 1.26071 95.3863C0.930063 95.1685 0.421425 95.159 0.291813 94.6991C0.118382 94.0839 -0.200743 93.4853 0.176101 92.8314C0.518533 92.2372 1.6984 92.2837 0.872549 91.5856C0.229051 91.0416 0.17174 90.0023 0.74607 89.344C1.51721 88.4603 1.93405 87.6872 3.70338 87.5476C5.39189 87.4143 6.16119 87.7049 7.38222 86.2624C7.91941 85.6277 13.2698 74.5766 14.6076 70.3552C15.0003 69.1163 15.0525 68.9038 14.6575 68.6889C12.5331 67.5328 10.94 65.6434 10.3439 65.2725C10.0043 65.0613 9.82837 64.727 9.76976 64.3271C8.42641 55.1532 8.80414 59.4165 8.58308 53.4426C8.53354 52.104 8.89662 50.8014 9.28327 49.5069C10.1889 46.4749 12.7174 46.5625 12.6996 41.9177C12.6888 39.0933 13.1052 37.5723 14.2255 33.8258C15.2945 30.2508 14.9687 32.9443 15.4796 27.3518C15.6548 25.4338 17.2668 24.1063 17.9043 20.7937C18.0875 19.8419 13.9555 14.9979 13.3921 14.3382C11.1772 11.7449 10.122 9.91182 10.3385 7.82431C10.4442 6.8052 10.4052 5.72481 11.1301 4.85696C11.933 3.89558 11.9459 1.85568 12.9854 0.656577C15.0393 -1.71257 18.041 2.90434 23.2781 5.3975C24.6187 6.03569 24.5361 5.34552 25.3604 5.27979C28.3313 5.04301 32.942 7.44402 35.473 8.87497C42.8242 13.0313 42.0489 24.6564 39.669 25.353C39.3221 25.4545 39.2195 25.6128 39.3326 25.9914C39.8042 27.5704 40.4288 29.1307 40.2652 30.8148C39.6003 37.6554 40.5677 41.1962 46.857 47.0318C52.0953 51.8921 59.4382 64.9043 62.6461 71.5781C62.9965 72.3071 63.0543 73.0786 63.2387 73.8318C64.4517 78.7863 64.3408 75.6357 64.1686 82.8995C64.1497 83.6983 63.3576 84.2586 64.4219 84.5415C67.7082 85.4147 68.3008 85.8856 69.7896 86.984C77.7981 92.8921 80.0814 93.015 86.9413 93.6136C88.3158 93.7335 89.6356 94.0857 90.9853 94.3066C91.7704 94.4351 92.5706 94.4333 93.3512 94.5982C93.8729 94.7084 97.5547 94.1275 97.6241 94.1169C100.027 93.7507 101.925 96.1035 96.4691 98.2439C94.1331 99.1604 94.0234 99.2678 92.6743 99.2913C89.9419 99.3389 83.1123 98.8103 79.2418 98.9645C75.7988 99.1018 70.5642 96.4439 67.2068 94.9419C66.3506 94.559 65.3958 94.5552 64.4757 94.5528C62.9938 94.549 61.5901 94.1518 60.1474 93.9577C53.5552 93.0708 58.1614 94.453 48.881 95.4787C47.15 95.67 45.4576 95.37 43.7693 95.1047C43.0066 94.9848 42.4342 94.4874 41.9098 93.9924C41.1911 93.3139 40.2805 92.8195 39.6815 92.0274C39.6291 91.9581 39.5357 91.9051 39.433 91.9445C39.1647 92.0478 39.3248 92.1368 39.2067 93.3495C38.8808 96.6943 36.6654 96.799 34.2272 96.9328C32.3869 97.0338 30.548 97.1836 28.5039 97.1935ZM23.3957 86.9845C24.0428 86.7938 24.8463 86.848 25.6357 86.7154C29.3093 86.0985 29.9624 86.2752 28.4268 83.6938C27.7959 82.6333 27.3768 81.486 26.8072 80.4012C26.5174 79.8496 26.2503 79.312 26.3458 78.6724C26.9006 74.9552 26.4362 76.6317 27.2666 73.7661C27.3185 73.5871 27.3016 73.4563 27.1504 73.3425C26.4809 72.8379 25.7438 72.9327 25.2931 73.6252C20.2816 81.3253 17.9169 83.0729 17.4175 85.6971C17.3049 86.2893 17.6041 86.1897 18.762 87.0209C19.435 87.5039 19.8331 86.7012 21.8648 86.8529C22.3315 86.8877 22.7973 86.9327 23.3957 86.9845ZM25.5762 92.8748C25.9295 92.9437 26.2545 92.7782 26.5965 92.7738C27.2225 92.7656 29.5896 92.7942 32.6581 92.1874C34.1445 91.8934 33.4388 91.0906 33.1966 90.2569C32.8697 89.1314 31.9981 90.5196 23.7365 91.0132C20.3385 91.2162 20.6257 90.6439 19.2853 91.2701C18.9023 91.4491 19.0263 91.7663 19.4125 91.7C20.5807 91.4992 20.6766 92.6248 22.0047 92.6936C23.1954 92.7551 24.3896 92.76 25.5762 92.8748Z" fill="black" fill-opacity="0.2"/>
</svg>
