<svg width="50" height="42" viewBox="0 0 50 42" fill="none" xmlns="http://www.w3.org/2000/svg">
    <path d="M48.5694 15.7222L41.6162 10.0354C37.8831 4.30257 31.5879 0.884644 24.7495 0.884644C17.6153 0.884644 10.9714 4.70488 7.37071 10.8644L1.43166 15.7222C-0.0929185 16.9685 -0.0811845 18.1151 0.0612991 18.6884C0.203783 19.2608 0.73181 20.2775 2.66372 20.663L4.63502 21.057C4.66603 32.1221 13.6777 41.1153 24.7504 41.1153C35.7886 41.1153 44.7802 32.1765 44.8648 21.1567L47.3382 20.663C49.2701 20.2775 49.7973 19.26 49.9398 18.6884C50.0823 18.1159 50.094 16.9694 48.5694 15.7222ZM48.3129 18.2827C48.2551 18.5141 47.8796 18.8468 47.0096 19.0203L43.8549 19.6497C43.4543 19.7294 43.1701 20.0864 43.181 20.4954C43.1852 20.663 43.1877 20.8315 43.1877 21.0008C43.1877 31.1683 34.9161 39.4399 24.7487 39.4399C14.5812 39.4399 6.30962 31.1683 6.30962 21.0008C6.30962 20.7997 6.31298 20.5985 6.31884 20.3982C6.33141 19.9892 6.04645 19.6305 5.64498 19.55L2.98976 19.0203C2.11977 18.8468 1.74428 18.5141 1.68645 18.2827C1.62862 18.0514 1.80463 17.5812 2.49106 17.0205L8.54829 12.0663C8.62708 12.0017 8.69329 11.9229 8.74442 11.8349C12.0282 6.11463 18.1601 2.56176 24.7478 2.56176C31.0582 2.56176 36.8631 5.73663 40.2769 11.0546C40.3246 11.1292 40.3833 11.1954 40.4512 11.2507L47.5067 17.0213C48.1948 17.5812 48.3708 18.0514 48.3129 18.2827Z" fill="black"/>
    <path d="M17.2145 19.3329C18.1403 19.3329 18.8908 18.5824 18.8908 17.6566C18.8908 16.7308 18.1403 15.9803 17.2145 15.9803C16.2887 15.9803 15.5382 16.7308 15.5382 17.6566C15.5382 18.5824 16.2887 19.3329 17.2145 19.3329Z" fill="black"/>
    <path d="M32.301 19.3329C33.2268 19.3329 33.9773 18.5824 33.9773 17.6566C33.9773 16.7308 33.2268 15.9803 32.301 15.9803C31.3753 15.9803 30.6248 16.7308 30.6248 17.6566C30.6248 18.5824 31.3753 19.3329 32.301 19.3329Z" fill="black"/>
    <path d="M32.301 27.7143C32.301 29.5632 30.7974 31.0668 28.9484 31.0668C27.0995 31.0668 25.5959 29.5632 25.5959 27.7143V27.6464C27.506 27.3346 28.9484 25.981 28.9484 24.3617C28.9484 22.5128 27.0685 21.0092 24.7577 21.0092C22.447 21.0092 20.567 22.5128 20.567 24.3617C20.567 25.981 22.0095 27.3346 23.9196 27.6464V27.7143C23.9196 29.5632 22.416 31.0668 20.567 31.0668C18.7181 31.0668 17.2145 29.5632 17.2145 27.7143V26.8761H15.5382V27.7143C15.5382 30.4877 17.7936 32.7431 20.567 32.7431C22.3154 32.7431 23.8559 31.8454 24.7577 30.4885C25.6596 31.8463 27.2001 32.7431 28.9484 32.7431C31.7218 32.7431 33.9773 30.4877 33.9773 27.7143V26.8761H32.301V27.7143ZM22.2433 24.3617C22.2433 23.4532 23.3949 22.6854 24.7577 22.6854C26.1205 22.6854 27.2722 23.4532 27.2722 24.3617C27.2722 25.2703 26.1205 26.038 24.7577 26.038C23.3949 26.038 22.2433 25.2703 22.2433 24.3617Z" fill="black"/>
</svg>
