<svg width="44" height="50" viewBox="0 0 44 50" fill="none" xmlns="http://www.w3.org/2000/svg">
    <path d="M2.37715 35.8164C2.28821 35.3635 2.43371 34.8969 2.75436 34.5708L22.4541 14.8736L20.6884 13.1075C20.4298 12.8489 20.2866 12.4982 20.2866 12.1314C20.2866 11.7647 20.4321 11.4144 20.6884 11.1526L24.7378 7.10863C24.9964 6.85001 25.3472 6.70724 25.7153 6.70724C26.082 6.70724 26.4323 6.85274 26.6927 7.10863L27.8846 8.30594C28.8297 7.35128 30.6655 5.50445 34.2378 1.91614C36.6165 -0.466634 40.0834 -0.657749 42.2564 1.51476C43.4181 2.67422 43.9075 4.09503 43.6703 5.62076C43.4733 6.8906 42.7645 8.16592 41.6242 9.30622C38.0437 12.8731 36.1973 14.7094 35.2413 15.6609L36.6662 17.0872C37.204 17.6268 37.204 18.5003 36.6662 19.0389L32.6223 23.0829C32.3513 23.3525 31.9978 23.4875 31.6448 23.4875C31.2918 23.4875 30.9369 23.3497 30.6674 23.0829L28.8999 21.3173L9.20613 41.0144C8.9393 41.2757 8.58855 41.419 8.22731 41.419C8.13837 41.419 8.0517 41.4085 7.96002 41.3916C6.79282 41.1626 4.70882 40.6559 3.91381 39.8522C3.11606 39.0572 2.60886 36.9809 2.37715 35.8164ZM31.6425 20.1578L33.7343 18.0628L32.3039 16.6311C32.0425 16.3697 31.9011 16.0085 31.9039 15.639C31.9066 15.2695 32.0644 14.911 32.3299 14.6552C32.6049 14.3906 39.6697 7.35402 39.6697 7.35402C40.3826 6.64201 40.8315 5.87664 40.9368 5.19976C41.0367 4.56347 40.8264 3.99469 40.2996 3.47152C39.1739 2.33942 37.4945 2.56292 36.1896 3.87062C36.1896 3.87062 29.1166 10.9747 28.9063 11.1932C28.6527 11.4737 28.2928 11.6384 27.9179 11.6489C27.5512 11.6489 27.1753 11.5111 26.9067 11.2443L25.7098 10.0447L23.6162 12.1364L31.6425 20.1578ZM5.82813 37.8735C6.05163 38.0377 6.89317 38.3155 7.78807 38.5285L26.8638 19.4567L24.32 16.912L5.24613 35.9861C5.45868 36.8787 5.72049 37.7089 5.82813 37.8735ZM0.271259 47.0781C0.271259 48.6927 1.57895 50 3.19679 50C4.81145 50 6.12461 48.6927 6.12461 47.0781C6.12461 45.4629 3.19679 41.1307 3.19679 41.1307C3.19679 41.1307 0.271259 45.4629 0.271259 47.0781Z" fill="black"/>
</svg>
