<svg width="50" height="50" viewBox="0 0 50 50" fill="none" xmlns="http://www.w3.org/2000/svg">
    <g clip-path="url(#clip0_53_44)">
        <path d="M49.7989 40.6546C49.5781 39.7012 49.3758 38.7446 49.1975 37.8112C49.117 37.3897 48.7101 37.1137 48.2887 37.1939C47.8672 37.2743 47.5909 37.6813 47.6714 38.1028C47.8535 39.0558 48.06 40.0323 48.2853 41.0051C48.3922 41.4666 48.4463 41.9488 48.4463 42.4383C48.4463 44.0859 47.811 45.6323 46.7886 46.4741C46.7822 46.4794 46.776 46.4847 46.7698 46.49C46.7633 46.4949 46.7567 46.5 46.7504 46.5051C46.2588 46.8977 45.7031 47.1051 45.1436 47.1051C44.584 47.1051 44.0282 46.8977 43.5366 46.5051C43.5304 46.5 43.524 46.4951 43.5176 46.4902C43.5112 46.4848 43.505 46.4794 43.4986 46.4741C42.476 45.6322 41.8408 44.0859 41.8408 42.4383C41.8408 41.9489 41.895 41.4668 42.0019 41.0053C43.0602 36.4349 43.6521 31.9926 43.7609 27.8019C43.7662 27.5924 43.6869 27.3898 43.5406 27.2396C43.3944 27.0896 43.1938 27.0049 42.9842 27.0049H32.6121V24.8964H41.9752C42.4042 24.8964 42.7521 24.5488 42.7521 24.1196C42.7521 23.6905 42.4042 23.3428 41.9752 23.3428H32.6121V21.115H41.9752C42.4042 21.115 42.7521 20.7673 42.7521 20.3381C42.7521 19.909 42.4042 19.5614 41.9752 19.5614H32.6121V17.3336H41.9752C42.4042 17.3336 42.7521 16.9859 42.7521 16.5567C42.7521 16.1276 42.4042 15.78 41.9752 15.78H32.6121V13.5521H41.9752C42.4042 13.5521 42.7521 13.2045 42.7521 12.7753C42.7521 12.3462 42.4042 11.9985 41.9752 11.9985H32.6121V9.77088H41.9752C42.4042 9.77088 42.7521 9.42323 42.7521 8.99403C42.7521 8.56493 42.4042 8.21717 41.9752 8.21717H32.6121V5.98964H36.9068C37.3358 5.98964 37.6836 5.64198 37.6836 5.21288C37.6836 4.78378 37.3358 4.43603 36.9068 4.43603H32.6121V2.89492H42.8878C44.8826 2.89492 46.5056 4.51787 46.5056 6.51269V26.3552C46.5056 29.3062 46.7485 32.3914 47.2276 35.5252C47.2925 35.9492 47.6889 36.2402 48.113 36.1757C48.537 36.1109 48.8283 35.7145 48.7635 35.2904C48.2962 32.234 48.0593 29.2279 48.0593 26.3552V6.51269C48.0593 3.66123 45.7395 1.34131 42.8879 1.34131H31.8352C31.4062 1.34131 31.0583 1.68906 31.0583 2.11806V27.7817C31.0583 28.2108 31.4062 28.5585 31.8352 28.5585H42.1812C42.0247 32.4104 41.4561 36.4753 40.4882 40.6547C40.3547 41.2311 40.287 41.8311 40.287 42.4383C40.287 44.4905 41.0574 46.3809 42.3573 47.5418C42.4442 47.6723 42.5693 47.775 42.7167 47.8339C43.4513 48.3741 44.2864 48.6587 45.1434 48.6587C46.0001 48.6587 46.8354 48.3742 47.5699 47.8339C47.7174 47.7751 47.8426 47.6723 47.9294 47.5418C49.2292 46.3809 49.9997 44.4904 49.9997 42.4383C50 41.8311 49.9323 41.2311 49.7989 40.6546Z" fill="black"/>
        <path d="M41.9751 4.43604H39.4513C39.0223 4.43604 38.6744 4.78369 38.6744 5.21289C38.6744 5.64199 39.0223 5.98965 39.4513 5.98965H41.9751C42.4041 5.98965 42.7519 5.64199 42.7519 5.21289C42.752 4.78369 42.4041 4.43604 41.9751 4.43604Z" fill="black"/>
        <path d="M26.7663 37.0352C24.237 37.0352 22.1793 39.0929 22.1793 41.6222C22.1794 44.1515 24.237 46.2091 26.7663 46.2091C29.2955 46.2091 31.3532 44.1515 31.3532 41.6222C31.3532 39.0929 29.2955 37.0352 26.7663 37.0352ZM26.7663 44.6554C25.0937 44.6554 23.7329 43.2946 23.7329 41.6221C23.733 39.9493 25.0937 38.5887 26.7663 38.5887C28.4389 38.5887 29.7996 39.9494 29.7996 41.6221C29.7996 43.2946 28.4389 44.6554 26.7663 44.6554Z" fill="black"/>
        <path d="M34.2277 41.356C34.0975 37.6154 31.0733 34.4625 27.3431 34.1779C26.6855 34.128 26.0267 34.1637 25.3826 34.2846L24.4571 34.1334C23.257 33.9374 22.1337 33.3596 21.2752 32.5002L20.6449 30.4637L25.2502 5.21973C25.5272 3.70147 24.9795 2.12482 23.8208 1.10519C23.6231 0.931166 23.3509 0.869057 23.0971 0.940737C22.8436 1.01212 22.6436 1.20704 22.5657 1.4587L17.1164 19.0639L11.6672 1.4589C11.5893 1.20724 11.3892 1.01222 11.1358 0.940932C10.8823 0.86935 10.6098 0.931362 10.4121 1.10538C9.25337 2.12501 8.70562 3.70157 8.98257 5.21983L10.6836 14.5445C10.7607 14.9666 11.1653 15.2462 11.5874 15.1693C12.0094 15.0924 12.2891 14.6878 12.2122 14.2657L10.5111 4.94102C10.417 4.42579 10.4695 3.90001 10.6484 3.4212L16.3744 21.9207C16.3744 21.9207 16.3744 21.9207 16.3744 21.9208L19.1044 30.7414C19.1044 30.7415 19.1045 30.7416 19.1045 30.7417L19.8459 33.137C19.8808 33.2498 19.941 33.3531 20.0219 33.4392C21.1273 34.6154 22.6134 35.4065 24.2065 35.6668L25.2382 35.8353C25.3398 35.8561 25.4465 35.857 25.5527 35.8347C26.1001 35.7204 26.6626 35.684 27.2247 35.7271C30.1284 35.9487 32.5734 38.498 32.675 41.41C32.7316 43.0313 32.1438 44.5651 31.0196 45.729C29.895 46.8934 28.3845 47.5349 26.766 47.5349C24.0792 47.5349 21.7275 45.7219 21.0469 43.1262C21.0413 43.1049 21.0348 43.0838 21.0276 43.0632L18.3302 31.5844C18.2711 31.3332 18.0912 31.1277 17.8499 31.036L17.3931 30.8624C17.3928 30.8623 17.3925 30.8621 17.3921 30.862L15.3399 30.0822L15.0791 29.9832L12.6765 16.8122C12.5995 16.3901 12.1948 16.1102 11.7728 16.1874C11.3507 16.2643 11.071 16.6689 11.148 17.091L13.5876 30.4641L12.9573 32.5004C12.0989 33.3598 10.9756 33.9375 9.77544 34.1336L8.84976 34.2848C8.2065 34.1641 7.54478 34.1281 6.88922 34.178C3.15914 34.4626 0.13503 37.6155 0.00446363 41.3559C-0.066923 43.4022 0.675556 45.3385 2.09489 46.8083C3.51491 48.2786 5.42232 49.0885 7.46607 49.0885C10.8234 49.0885 13.7668 46.8461 14.6606 43.6222C14.6746 43.5871 14.6861 43.5506 14.6949 43.5128L17.1161 33.2098L19.5372 43.5128C19.546 43.5504 19.5576 43.5869 19.5715 43.6221C20.4653 46.8461 23.4086 49.0886 26.7659 49.0886C28.8096 49.0886 30.7171 48.2788 32.1371 46.8084C33.5566 45.3386 34.299 43.4022 34.2277 41.356ZM19.6513 27.2536L17.9296 21.691L23.5846 3.4213C23.7636 3.90001 23.8158 4.42569 23.7219 4.94102L19.6513 27.2536ZM13.205 43.0632C13.1978 43.0837 13.1913 43.1047 13.1857 43.1262C12.5051 45.7219 10.1534 47.5347 7.46656 47.5347C5.8482 47.5347 4.33756 46.8935 3.21295 45.7288C2.08903 44.565 1.50114 43.0312 1.55778 41.4099C1.65934 38.4979 4.10436 35.9486 7.00806 35.727C7.16031 35.7154 7.31451 35.7095 7.46646 35.7095C7.87359 35.7095 8.28199 35.7516 8.68013 35.8346C8.78599 35.8567 8.89214 35.8559 8.99312 35.8356L10.0264 35.6668C11.6195 35.4065 13.1056 34.6155 14.211 33.4392C14.2918 33.3533 14.3521 33.2498 14.387 33.137L14.873 31.5666L15.283 31.7223L15.8219 31.9271L13.205 43.0632Z" fill="black"/>
        <path d="M7.4664 37.0352C4.93711 37.0352 2.87939 39.0929 2.87939 41.6222C2.87939 44.1515 4.93711 46.2091 7.4664 46.2091C9.99569 46.2091 12.0534 44.1515 12.0534 41.6222C12.0534 39.0929 9.99569 37.0352 7.4664 37.0352ZM7.4664 44.6554C5.79374 44.6554 4.433 43.2946 4.433 41.6221C4.433 39.9493 5.79374 38.5887 7.4664 38.5887C9.13905 38.5887 10.4998 39.9494 10.4998 41.6221C10.4998 43.2946 9.13905 44.6554 7.4664 44.6554Z" fill="black"/>
    </g>
    <defs>
        <clipPath id="clip0_53_44">
            <rect width="50" height="50" fill="white"/>
        </clipPath>
    </defs>
</svg>
