<svg width="48" height="48" viewBox="0 0 48 48" fill="none" xmlns="http://www.w3.org/2000/svg">
    <path d="M47.8471 21.2356C47.7451 20.9915 47.5991 20.7695 47.4131 20.5835L41.4151 14.5855C40.6332 13.8055 39.3691 13.8055 38.5872 14.5855C37.8052 15.3675 37.8052 16.6335 38.5872 17.4135L41.1732 19.9995H30.0011C28.8951 19.9995 28.0011 20.8955 28.0011 21.9995C28.0011 23.1035 28.8951 23.9994 30.0011 23.9994H41.1731L38.5871 26.5854C37.8051 27.3674 37.8051 28.6334 38.5871 29.4134C38.9771 29.8054 39.489 29.9994 40.0011 29.9994C40.5132 29.9994 41.0251 29.8055 41.4151 29.4134L47.4131 23.4154C47.5991 23.2313 47.7451 23.0093 47.8471 22.7633C48.0491 22.2755 48.0491 21.7235 47.8471 21.2356Z" fill="black"/>
    <path d="M34.0012 28C32.8952 28 32.0012 28.896 32.0012 30V40H24.0012V7.99997C24.0012 7.11797 23.4212 6.33797 22.5752 6.084L15.6292 4.00003H32.0012V14.0001C32.0012 15.1041 32.8952 16 34.0012 16C35.1071 16 36.0011 15.1041 36.0011 14.0001V2.00006C36.0011 0.895969 35.1071 0 34.0012 0H2.00119C1.92919 0 1.86516 0.03 1.79522 0.0379688C1.70119 0.048 1.61522 0.0639375 1.52522 0.0859687C1.31522 0.139969 1.12519 0.222 0.947252 0.333937C0.903283 0.361969 0.849283 0.363937 0.807283 0.395906C0.791158 0.408 0.785158 0.430031 0.769127 0.442031C0.551158 0.613969 0.369189 0.823969 0.237189 1.074C0.209158 1.128 0.203158 1.18603 0.181221 1.242C0.117189 1.39397 0.047252 1.542 0.023252 1.71C0.0132207 1.77 0.0312207 1.82597 0.029252 1.884C0.0272832 1.92403 0.0012207 1.96003 0.0012207 1.99997V42C0.0012207 42.954 0.675189 43.774 1.60922 43.96L21.6092 47.9601C21.7392 47.9881 21.8712 48.0001 22.0012 48.0001C22.4591 48.0001 22.9091 47.8421 23.2691 47.5461C23.7311 47.1661 24.0011 46.6 24.0011 46V44.0001H34.0012C35.1071 44.0001 36.0011 43.1041 36.0011 42.0001V30C36.0011 28.896 35.1071 28 34.0012 28Z" fill="black"/>
</svg>
