<svg width="108" height="110" viewBox="0 0 108 110" fill="none" xmlns="http://www.w3.org/2000/svg">
    <path d="M86.9318 82.9814C91.558 90.2654 93.7383 94.1326 93.7383 98.1664C93.7383 106.133 87.8215 109.995 79.8506 109.995C76.337 109.995 74.0689 109.991 68.3368 107.009C68.3368 107.009 64.6228 103.61 55.9312 103.959C47.1585 103.612 43.4422 107.052 43.4422 107.052C37.7101 110.032 35.5231 110 32.014 110C24.0431 110 18.1218 106.142 18.1218 98.1709C18.1218 94.1371 20.3088 90.2744 24.9328 82.9859C24.9328 82.9859 33.674 68.4699 41.2484 61.6409C46.7215 56.7129 54.7014 56.7309 54.7014 56.7309H57.1632V56.7286C57.1632 56.7286 65.4922 56.7084 70.6229 61.6409C77.9632 68.7176 86.9318 82.9837 86.9318 82.9814ZM36.4578 47.0235C44.7913 47.0235 51.546 36.4962 51.546 23.5117C51.546 10.5272 44.7913 0 36.4578 0C28.1243 0 21.3697 10.5272 21.3697 23.5117C21.3697 36.4962 28.1243 47.0235 36.4578 47.0235ZM21.9981 69.7942C28.1401 66.9586 29.541 56.9043 25.1242 47.3366C20.7075 37.7688 12.1488 32.3092 6.00674 35.1426C-0.135281 37.976 -1.53396 48.0325 2.88055 57.6003C7.2973 67.168 15.856 72.6254 21.9981 69.7942ZM71.5374 47.0235C79.8709 47.0235 86.6277 36.4962 86.6277 23.5117C86.6277 10.5272 79.8709 0 71.5374 0C63.2039 0 56.4492 10.5272 56.4492 23.5117C56.4492 36.4962 63.2039 47.0235 71.5374 47.0235ZM101.991 35.1404C95.8464 32.3047 87.2899 37.7643 82.8732 47.3343C78.4564 56.9043 79.8573 66.9586 86.0016 69.7942C92.1459 72.6276 100.702 67.168 105.119 57.6003C109.536 48.0325 108.135 37.976 101.991 35.1404Z" fill="#FF783F"/>
</svg>
