<svg width="90" height="86" viewBox="0 0 90 86" fill="none" xmlns="http://www.w3.org/2000/svg">
    <path d="M29.5064 81.8173H26.5144C24.8407 83.4629 23.008 84.8374 21.0071 85.95H29.5064C30.0207 85.95 30.4414 85.5293 30.4414 85.015V82.7523C30.4414 82.238 30.0207 81.8173 29.5064 81.8173Z" fill="#3DE092"/>
    <path d="M47.0381 81.8173H35.6308C35.1166 81.8173 34.6958 82.238 34.6958 82.7523V85.015C34.6958 85.5293 35.1166 85.95 35.6308 85.95H47.0381C47.5523 85.95 47.9731 85.5293 47.9731 85.015V82.7523C47.9731 82.238 47.5523 81.8173 47.0381 81.8173Z" fill="#3DE092"/>
    <path d="M64.5696 81.8173H53.1623C52.6481 81.8173 52.2273 82.238 52.2273 82.7523V85.015C52.2273 85.5293 52.6481 85.95 53.1623 85.95H64.5696C65.0838 85.95 65.5046 85.5293 65.5046 85.015V82.7523C65.5046 82.238 65.0838 81.8173 64.5696 81.8173Z" fill="#3DE092"/>
    <path d="M82.1013 81.8173H70.6941C70.1798 81.8173 69.759 82.238 69.759 82.7523V85.015C69.759 85.5293 70.1798 85.95 70.6941 85.95H82.1013C82.6156 85.95 83.0363 85.5293 83.0363 85.015V82.7523C83.0363 82.238 82.6156 81.8173 82.1013 81.8173Z" fill="#3DE092"/>
    <path d="M29.5625 72.0838C35.7431 60.0781 37.6599 56.9083 40.1377 55.1132L34.6491 49.6246L0.137573 84.1362C-0.114883 84.3886 -0.00268037 84.8188 0.333927 84.9123C1.60555 85.2769 4.41061 85.9502 7.90758 85.9502C10.6939 85.9502 13.9198 85.52 17.1643 84.183C18.5949 83.594 20.0348 82.8179 21.4373 81.8268C24.4106 79.7042 27.2343 76.5999 29.5625 72.0838Z" fill="#3DE092"/>
    <path d="M84.2799 1.51791C83.2981 0.536137 82.0172 0.0499268 80.7363 0.0499268C79.4553 0.0499268 78.1743 0.536137 77.2018 1.51791L35.2849 43.4348C34.6866 44.0332 34.6866 45.0057 35.2849 45.6041L37.8469 48.1659L42.1293 43.8835L54.3687 31.6441L64.2799 21.7329C64.3452 21.6675 64.4014 21.6114 64.4669 21.5646C64.4762 21.5553 64.4949 21.5459 64.5042 21.5366C64.5322 21.5085 64.5696 21.4898 64.6071 21.4618C65.6262 20.7325 67.0382 20.826 67.9545 21.7329L68.3191 22.0976C69.1233 22.9017 69.2915 24.1172 68.8147 25.0896C68.6931 25.3328 68.5248 25.5665 68.3191 25.7722L55.1072 38.9747L45.9347 48.1473L41.8861 52.196L44.4479 54.7578C44.7471 55.057 45.1398 55.2067 45.5326 55.2067C45.9253 55.2067 46.318 55.057 46.6173 54.7578L88.5342 12.8409C90.4884 10.8867 90.4884 7.71699 88.5342 5.7628L84.2799 1.51791Z" fill="#3DE092"/>
</svg>
