<svg width="90" height="90" viewBox="0 0 90 90" fill="none" xmlns="http://www.w3.org/2000/svg">
    <path d="M64.075 75.5708C65.6479 75.5708 66.9231 74.1966 66.9231 72.5013C66.9231 70.806 65.6479 69.4318 64.075 69.4318C62.502 69.4318 61.2268 70.806 61.2268 72.5013C61.2268 74.1966 62.502 75.5708 64.075 75.5708Z" fill="#3DE092"/>
    <path d="M30.6487 61.142C29.2889 59.7819 27.6535 58.918 25.9263 58.918C24.1438 58.918 22.4901 59.7818 21.1487 61.1971C23.7212 60.6457 26.992 60.3516 30.6487 61.142Z" fill="#3DE092"/>
    <path d="M89.9272 82.648C87.7222 67.429 78.7919 54.5626 66.4989 47.5597C67.0686 51.8423 67.6382 59.1394 66.2784 65.5725C68.998 66.5651 71.0008 69.2854 71.0008 72.502C71.0008 76.5824 67.9322 79.7806 64.0734 79.7806C60.2146 79.7806 57.146 76.5089 57.146 72.502C57.146 69.0097 59.4245 66.1423 62.5115 65.352C64.3674 57.7792 62.8607 47.9824 62.438 45.4827C61.9419 45.2621 61.4458 45.0599 60.9313 44.8394C56.7969 49.122 51.2108 51.7688 45 51.7688C38.9362 51.7688 33.3502 49.1955 29.2893 45.0599C28.6461 46.4936 27.4334 49.9859 27.6539 55.2059C33.7177 56.4191 38.3666 63.8448 38.3666 72.7777C38.3666 76.0678 37.7235 79.3579 36.5107 82.1333C35.8492 84.2287 33.0746 85.0742 31.7883 85.0742C29.8589 85.0742 28.297 83.4384 28.297 81.3614C28.297 79.2844 29.8773 77.6485 31.7883 77.6485C32.3579 77.6485 33.148 77.7956 34.0117 78.1448C35.4817 73.8989 34.3608 68.1458 33.6626 66.2159C26.8086 63.0728 20.5243 65.2233 18.2274 66.2159C17.5843 68.1458 16.3532 73.4026 17.8783 78.1448C18.7419 77.7956 19.5137 77.6485 20.1017 77.6485C22.0311 77.6485 23.593 79.2844 23.593 81.3614C23.593 83.4384 22.0127 85.0742 20.1017 85.0742C18.8889 85.0742 16.1694 84.2839 15.4528 82.3539C14.1665 79.5049 13.5234 76.2148 13.5234 72.7777C13.5234 63.9183 18.0988 56.5661 24.0156 55.2059C23.8686 51.7688 24.3096 48.9198 24.8057 46.8428C11.7778 53.7171 2.35131 66.9327 0.0727907 82.648C-0.496839 86.5079 2.35131 90.0002 6.00796 90.0002H83.9369C87.6487 90.0002 90.4969 86.5079 89.9272 82.648Z" fill="#3DE092"/>
    <path d="M45.0004 48.5711C55.7131 48.5711 64.4229 39.3624 64.4229 27.9849C64.4229 26.4042 64.2759 24.9154 63.9268 23.4082C63.9268 23.4082 54.7943 20.5592 45.0004 20.5592C35.2248 20.5592 26.1475 23.4082 26.1475 23.4082C25.8535 24.9154 25.6513 26.4042 25.6513 27.9849C25.5778 39.4176 34.2877 48.5711 45.0004 48.5711Z" fill="#3DE092"/>
    <path d="M62.3645 18.9962C63.7242 13.6291 65.0105 8.20688 66.2967 2.83978C52.3501 -0.946594 37.65 -0.946594 23.7217 2.83978C25.0079 8.20688 26.3677 13.6291 27.6539 18.9962C38.9914 15.9083 51.0087 15.9083 62.3645 18.9962ZM39.7815 6.62616H43.4198V2.76626H46.5619V6.62616H50.2002V9.91627H46.5619V13.7762H43.4198V9.91627H39.7815V6.62616Z" fill="#3DE092"/>
</svg>
