<svg width="72" height="90" viewBox="0 0 72 90" fill="none" xmlns="http://www.w3.org/2000/svg">
    <path d="M68.5614 0H16.098C14.2518 0 12.755 1.49678 12.755 3.34301V12.4329H3.43871C1.59248 12.4329 0.0957031 13.9296 0.0957031 15.7759V86.657C0.0957031 88.5032 1.59248 90 3.43871 90H56.0327C57.8789 90 59.3757 88.5032 59.3757 86.657V79.2565H68.5614C70.4076 79.2565 71.9044 77.7597 71.9044 75.9135V3.34301C71.9044 1.49678 70.4076 0 68.5614 0ZM46.51 66.7505H12.9609C11.1147 66.7505 9.61793 65.2537 9.61793 63.4075C9.61793 61.5613 11.1147 60.0645 12.9609 60.0645H46.5105C48.3567 60.0645 49.8535 61.5613 49.8535 63.4075C49.8535 65.2537 48.3563 66.7505 46.51 66.7505ZM46.51 45.0624H12.9609C11.1147 45.0624 9.61793 43.5656 9.61793 41.7194C9.61793 39.8732 11.1147 38.3764 12.9609 38.3764H46.5105C48.3567 38.3764 49.8535 39.8732 49.8535 41.7194C49.8535 43.5656 48.3563 45.0624 46.51 45.0624ZM46.51 28.2538H12.9609C11.1147 28.2538 9.61793 26.757 9.61793 24.9108C9.61793 23.0645 11.1147 21.5677 12.9609 21.5677H46.5105C48.3567 21.5677 49.8535 23.0645 49.8535 24.9108C49.8535 26.757 48.3563 28.2538 46.51 28.2538ZM65.2184 72.5704H59.3757V15.7759C59.3757 13.9296 57.8789 12.4329 56.0327 12.4329H19.441V6.68601H65.2184V72.5704Z" fill="#3DE092"/>
</svg>
