<svg width="86" height="90" viewBox="0 0 86 90" fill="none" xmlns="http://www.w3.org/2000/svg">
    <path d="M40.4987 29.3444C40.4077 29.3579 40.3191 29.3633 40.2297 29.3724V44.9139C42.3037 45.2828 44.6116 44.9499 46.2579 44.7226V29.4536C46.0851 29.4314 45.9145 29.3976 45.7489 29.3463C43.6012 28.6825 43.2973 28.9296 40.4987 29.3444Z" fill="#3DE092"/>
    <path d="M43.2822 0C39.5213 0 36.4727 3.04863 36.4727 6.8095C36.4727 9.4725 38.0021 11.7769 40.2296 12.8965V13.8238C40.2709 13.8222 40.3121 13.8208 40.3523 13.8189H45.9529C46.0511 13.8238 46.1533 13.8269 46.2578 13.8285V12.9362C48.5275 11.8318 50.0919 9.50353 50.0919 6.80973C50.0919 3.04863 47.0433 0 43.2822 0Z" fill="#3DE092"/>
    <path d="M40.2295 51.3089V63.8926C42.596 65.3056 44.6585 64.4077 45.6215 63.9322C45.8298 63.8296 46.0428 63.7139 46.2577 63.5909V51.6402C46.0032 51.5268 45.7393 51.4137 45.4566 51.3017L45.4563 51.3229C43.7827 50.5454 42.7677 50.7194 40.6797 51.1358C40.5248 51.1934 40.3767 51.2513 40.2295 51.3089Z" fill="#3DE092"/>
    <path d="M40.2297 72.4822V85.5434C40.2276 85.5875 40.2231 85.6314 40.2231 85.6762C40.2231 87.3444 41.5744 88.697 43.2407 88.697C44.9071 88.697 46.2577 87.3446 46.2581 85.6764V73.0116C45.9238 72.7512 45.5697 72.4976 45.1948 72.2531C43.544 71.3454 41.8674 71.3699 40.2297 72.4822Z" fill="#3DE092"/>
    <path d="M45.4567 51.5564L45.4569 51.5351C45.7396 51.6471 46.0035 51.7603 46.258 51.8736C51.2516 54.0995 50.9222 56.5439 50.9222 57.7658C50.9222 59.0501 50.1234 60.402 48.6072 61.6937C47.8483 62.3404 47.0372 62.9113 46.258 63.3578C46.0431 63.4807 45.8302 63.5962 45.6218 63.6991C44.6588 64.1745 42.5961 65.0725 40.2298 63.6594C39.0855 62.9412 38.3476 62.6477 37.1149 61.6937C35.5397 60.4746 34.8072 58.884 34.8072 57.5365C34.8072 56.2224 34.4309 53.8162 40.2296 51.5424C40.3768 51.4847 40.5249 51.4269 40.68 51.3695C42.7678 50.9528 43.783 50.7788 45.4567 51.5564ZM40.2296 44.6806C40.0945 44.6566 39.9601 44.6305 39.8271 44.6001C37.5134 44.0736 35.2479 43.6084 30.405 42.2665C25.7672 41.0375 20.6628 39.0504 19.9037 38.037C19.9627 37.9787 20.05 37.9164 20.1963 37.858C20.6038 37.6248 21.3335 37.4244 22.1501 37.2454C23.8708 36.8955 26.1757 36.7205 28.5093 36.6039C33.1476 36.4618 33.5003 36.6951 34.0516 36.6622C34.6026 36.6291 37.4217 36.5943 37.5103 34.4511C37.5987 32.3078 36.0728 32.1515 34.8772 31.9105C32.9817 31.6518 33.7887 31.7321 31.2218 31.7652C26.9635 32.086 13.9243 31.032 12.291 37.887C12.291 38.0874 12.2621 38.208 12.2327 38.3867C12.7865 44.3591 25.184 46.9627 34.1386 48.7345C31.1049 50.8129 29.4714 53.5256 28.8303 57.0552C28.5093 60.789 31.4845 64.3476 38.3982 68.3073C33.1476 72.0119 29.7049 75.5122 29.9972 79.7201C30.4218 82.8508 33.0165 86.9483 37.9515 89.8325C38.4423 90.1192 39.1504 90.0875 38.6402 89.2332C37.4035 87.1618 35.2584 83.2549 35.0722 80.792C34.8165 79.0064 35.6851 76.468 39.3125 73.4527C39.6165 73.166 39.9223 72.9236 40.2296 72.7151C41.8673 71.6027 43.5437 71.5782 45.1944 72.4862C45.5691 72.7307 45.9235 72.9843 46.2578 73.2446C49.539 75.801 50.8879 79.0251 50.6495 80.7923C50.4647 83.2404 48.3728 87.1326 47.1037 89.1956C46.6791 89.8859 47.1165 90.2358 47.7903 89.8224C52.6753 86.8249 55.2994 82.8569 55.7244 79.7203C56.017 75.5124 52.5741 72.0122 47.3456 68.3075C54.2372 64.3476 57.2126 60.789 56.8914 57.0555C56.2503 53.5552 54.6168 50.8423 51.5831 48.7347C60.5379 46.9626 72.9352 44.3591 73.489 38.3869C73.4596 38.2082 73.4307 38.0878 73.4307 37.8872C71.7972 31.0322 58.7579 32.0862 54.5001 31.7654C51.933 31.7323 52.2522 31.7167 51.0507 31.7216C49.849 31.7263 48.2958 32.3585 48.2568 34.274C48.2181 36.1893 50.4283 36.683 51.6701 36.6622C52.3959 36.6501 52.5741 36.4618 57.2126 36.633C59.546 36.7205 61.8509 36.8955 63.542 37.2454C64.3884 37.4244 65.0885 37.6248 65.5257 37.858C65.6423 37.9164 65.7589 37.9787 65.818 38.037C65.0588 39.0504 59.9545 41.0375 55.3167 42.2665C51.0621 43.4456 47.5311 44.2399 46.5904 44.4436C46.4831 44.458 46.3719 44.4734 46.2578 44.4891C44.6117 44.7165 42.3035 45.0494 40.2296 44.6806Z" fill="#3DE092"/>
    <path d="M82.8222 21.1792C71.6038 19.1001 62.7369 8.91375 60.2465 6.8839C57.4172 4.57549 55.4624 5.10436 52.6333 10.1763C50.8664 13.3274 48.1063 13.8579 46.258 13.8282C46.1537 13.8266 46.0513 13.8233 45.9531 13.8187H40.3525C40.3124 13.8208 40.2708 13.8222 40.2298 13.8236C38.3849 13.8903 35.4984 13.4323 33.6725 10.1761C30.8434 5.10413 28.8597 4.57526 26.0595 6.88366C23.5295 8.94548 14.4106 19.3129 2.9519 21.259C-0.231572 21.7995 -0.7987 23.3049 1.25215 24.7616C2.85859 25.9024 5.19965 26.7541 8.44075 26.1648C8.44075 26.1648 12.3791 30.2488 18.7669 27.3901C18.7669 27.3901 22.0922 30.3909 27.4012 27.6488C27.4012 27.6488 31.3099 30.6496 35.5105 28.061C35.5105 28.061 37.5621 29.6448 40.2298 29.3723C40.3194 29.3632 40.408 29.3576 40.4988 29.3443C43.2973 28.9298 43.6013 28.6825 45.7489 29.3462C45.9146 29.3975 46.0849 29.4314 46.258 29.4535C48.3268 29.719 50.7952 28.061 50.7952 28.061C54.9669 30.6498 58.9046 27.6488 58.9046 27.6488C64.2134 30.3909 67.5093 27.3901 67.5093 27.3901C73.9269 30.2488 77.865 26.1648 77.865 26.1648C80.5474 26.6526 82.6134 26.1532 84.1564 25.3199C86.8584 23.8606 86.591 21.8777 82.8222 21.1792Z" fill="#3DE092"/>
</svg>
