<svg width="64" height="76" viewBox="0 0 64 76" fill="none" xmlns="http://www.w3.org/2000/svg">
    <path d="M62.4123 58.5875L43.2498 25.7375V8H46.9998C47.9944 8 48.9482 7.60491 49.6515 6.90165C50.3547 6.19839 50.7498 5.24456 50.7498 4.25C50.7498 3.25544 50.3547 2.30161 49.6515 1.59835C48.9482 0.895088 47.9944 0.5 46.9998 0.5H16.9998C16.0053 0.5 15.0514 0.895088 14.3482 1.59835C13.6449 2.30161 13.2498 3.25544 13.2498 4.25C13.2498 5.24456 13.6449 6.19839 14.3482 6.90165C15.0514 7.60491 16.0053 8 16.9998 8H20.7498V25.7375L1.58731 58.5875C0.59185 60.2964 0.0644943 62.2376 0.058403 64.2154C0.0523117 66.1931 0.5677 68.1375 1.55262 69.8525C2.53753 71.5676 3.95717 72.9927 5.66843 73.9842C7.37968 74.9757 9.32207 75.4985 11.2998 75.5H52.5498C54.5275 75.4985 56.4699 74.9757 58.1812 73.9842C59.8925 72.9927 61.3121 71.5676 62.297 69.8525C63.2819 68.1375 63.7973 66.1931 63.7912 64.2154C63.7851 62.2376 63.2578 60.2964 62.2623 58.5875H62.4123ZM27.7248 28.5875C28.0556 28.0306 28.2364 27.3976 28.2498 26.75V8H35.7498V26.75C35.7567 27.4103 35.9378 28.0571 36.2748 28.625L39.4998 34.25H24.4998L27.7248 28.5875ZM55.9248 66.0875C55.5976 66.6543 55.1278 67.1255 54.562 67.4545C53.9962 67.7834 53.3542 67.9585 52.6998 67.9625H11.4498C10.7954 67.9585 10.1534 67.7834 9.58762 67.4545C9.02185 67.1255 8.55202 66.6543 8.22481 66.0875C7.89568 65.5174 7.72241 64.8708 7.72241 64.2125C7.72241 63.5542 7.89568 62.9076 8.22481 62.3375L20.1123 41.75H43.9248L55.9248 62.375C56.2539 62.9451 56.4272 63.5917 56.4272 64.25C56.4272 64.9083 56.2539 65.5549 55.9248 66.125V66.0875ZM24.4998 49.25C23.7581 49.25 23.0331 49.4699 22.4164 49.882C21.7997 50.294 21.3191 50.8797 21.0353 51.5649C20.7514 52.2502 20.6772 53.0042 20.8219 53.7316C20.9666 54.459 21.3237 55.1272 21.8482 55.6517C22.3726 56.1761 23.0408 56.5332 23.7682 56.6779C24.4957 56.8226 25.2497 56.7484 25.9349 56.4646C26.6201 56.1807 27.2058 55.7001 27.6178 55.0834C28.0299 54.4667 28.2498 53.7417 28.2498 53C28.2498 52.0054 27.8547 51.0516 27.1515 50.3484C26.4482 49.6451 25.4944 49.25 24.4998 49.25ZM39.4998 53C38.7581 53 38.0331 53.2199 37.4164 53.632C36.7997 54.044 36.3191 54.6297 36.0353 55.3149C35.7514 56.0002 35.6772 56.7542 35.8219 57.4816C35.9666 58.209 36.3237 58.8772 36.8482 59.4017C37.3726 59.9261 38.0408 60.2832 38.7682 60.4279C39.4957 60.5726 40.2497 60.4984 40.9349 60.2146C41.6201 59.9307 42.2058 59.4501 42.6178 58.8334C43.0299 58.2167 43.2498 57.4917 43.2498 56.75C43.2498 55.7554 42.8547 54.8016 42.1515 54.0983C41.4482 53.3951 40.4944 53 39.4998 53Z" fill="#3DE092"/>
</svg>
