<svg width="90" height="90" viewBox="0 0 90 90" fill="none" xmlns="http://www.w3.org/2000/svg">
<path fill-rule="evenodd" clip-rule="evenodd" d="M35.175 7.19995C34.1395 7.19995 33.3 8.03943 33.3 9.07495V16.575C33.3 17.6105 34.1395 18.45 35.175 18.45H37.05V20.8366C35.9577 21.2227 35.175 22.2645 35.175 23.489V72.825C35.175 78.0026 39.3724 82.2 44.55 82.2C49.7277 82.2 53.925 78.0026 53.925 72.825V23.489C53.925 22.2645 53.1424 21.2227 52.05 20.8366V18.45H53.925C54.9606 18.45 55.8 17.6105 55.8 16.575V9.07495C55.8 8.03943 54.9606 7.19995 53.925 7.19995H35.175ZM40.8 21.614V18.45H48.3V21.614C48.3 22.8386 49.0827 23.8803 50.175 24.2664V33.45H38.925V24.2664C40.0174 23.8803 40.8 22.8386 40.8 21.614Z" fill="#3DE092"/>
</svg>
