<svg width="50" height="50" viewBox="0 0 50 50" fill="none" xmlns="http://www.w3.org/2000/svg">
    <path d="M47.8091 13.8824L50 11.6915L38.3086 0L36.1177 2.19091L40.8679 6.94115L36.4828 11.3263L29.5416 4.38503L27.3506 6.57594L29.9068 9.13206L3.35665 35.6823L7.74168 40.0674L0 47.8091L2.19091 50L9.9326 42.2582L14.3177 46.6433L40.8679 20.0931L43.4241 22.6493L45.615 20.4583L38.6738 13.5171L43.059 9.13196L47.8091 13.8824ZM14.3177 42.2616L7.73848 35.6824L12.1852 31.2357L15.4748 34.5253L17.6657 32.3344L14.3761 29.0448L18.8227 24.5982L22.1123 27.8878L24.3032 25.6969L21.0136 22.4073L25.4602 17.9606L28.7498 21.2502L30.9407 19.0593L27.6511 15.7697L32.0978 11.323L38.6771 17.9023L14.3177 42.2616Z" fill="black"/>
</svg>
