<svg width="50" height="50" viewBox="0 0 50 50" fill="none" xmlns="http://www.w3.org/2000/svg">
    <path d="M45.5983 24.0366C43.5976 22.036 41.1376 20.658 38.4632 20.0047C42.73 15.3195 42.6891 8.06197 38.1672 3.54006C35.0131 0.385958 27.8475 -2.47213 21.3862 3.54006L3.44146 21.3827C-1.12127 26.0577 -1.17231 33.5398 3.44146 38.1638C9.2495 43.9718 17.2011 41.5424 20.1817 38.3067C20.8043 40.93 22.1109 43.4512 24.1524 45.4927C31.3997 52.74 41.0355 50.0554 45.5983 45.4927C51.4982 39.5928 51.4369 29.9876 45.5983 24.0366ZM25.7754 40.8789C22.9377 36.6326 23.3766 30.7531 27.1228 27.0172C32.2877 21.8522 38.892 24.1387 40.913 25.6596L25.7754 40.8789ZM24.2545 6.40836C28.0721 2.7643 33.1145 4.43832 35.0846 6.40836C38.106 9.42976 38.0549 14.3702 35.0846 17.3508L32.696 19.7393C30.1442 20.1068 27.7352 21.1275 25.6733 22.6995L16.8438 13.87L24.2545 6.40836ZM6.41183 35.2955C3.38021 32.2638 3.44146 27.3336 6.41183 24.3531L13.8735 16.8404L22.7233 25.6902C21.1922 27.7726 20.2531 30.1611 19.9061 32.6109L17.2317 35.2853C15.3229 37.2145 10.2907 39.1743 6.41183 35.2955ZM42.6279 42.5223C40.3006 44.8496 34.8192 47.5852 28.7253 43.8901L43.9344 28.5994C46.8129 32.8457 46.3842 38.766 42.6279 42.5223Z" fill="black"/>
</svg>
